<svg xmlns="http://www.w3.org/2000/svg" xmlns:xlink="http://www.w3.org/1999/xlink" version="1.1" x="0px" y="0px" fill="#4C9F70" viewBox="0 0 50 62.5" enable-background="new 0 0 50 50" xml:space="preserve"><g><path d="M14.3252,48.6778c0.5-0.22,3.53-0.22,4.54-0.22c0.46,0,1.04,1.06,2.53,0.23c0.7401-0.42,2.58-0.63,3.6-0.71   c1.03,0.08,2.87,0.29,3.61,0.71c1.42,0.79,2.12-0.23,2.53-0.23c1.0099,0,4.04,0,4.54,0.22c0,0,0.95-1.72-2.64-2.58   c-0.28-0.07-0.53-0.2-0.74-0.38c-0.05-0.04-0.11-0.07-0.14-0.12h-0.01c-0.39-0.38-0.61-0.93-0.59-1.51   c0.04-1.11,0.12-2.61,0.22-4.02c-0.31,0.13-0.94,0.38-1.75,0.6201c0,2.42,0.01,3.1299-0.64,3.96c-0.39,0.48-0.9,1.09-1.28,1.44   c-0.01,0-0.01,0-0.01,0c-0.11,0.11-0.22,0.19-0.3,0.24c-0.05,0.03-0.09,0.05-0.13,0.06c0,0-1.64,0.2401-2.67,0.85   c-1.03-0.61-2.66-0.85-2.66-0.85c-0.04-0.0099-0.08-0.03-0.13-0.06c-0.09-0.05-0.1899-0.13-0.3-0.24c0,0,0,0-0.01,0   c-0.39-0.35-0.89-0.96-1.28-1.44c-0.72-0.92-0.63-1.69-0.66-4.75c-0.67-0.27-1.27-0.58-1.81-0.92c0.14,1.66,0.2401,3.7,0.3,5.11   c0.02,0.58-0.2,1.13-0.59,1.51c-0.01,0-0.01,0-0.01,0c-0.04,0.05-0.09,0.08-0.14,0.12c-0.21,0.18-0.46,0.31-0.75,0.38   C13.3752,46.9578,14.3252,48.6778,14.3252,48.6778z"/><path d="M15.7652,33.4378c0.02,5.91,9.15,6.67,9.2599,6.74c2.82,0.53,6.45-1.06,6.45-1.06c4.42-2.46,3.59-8.57,3.59-8.57   c-0.16-4.26-3.82-7.18-3.82-7.18c-1.39-0.77-2.79-3.89-2.79-3.89c-0.5-1.51-0.2-7.83,0.32-9.6c0.42-1.45,0.25-3.69,0.25-3.69   c-0.5-5.4301-4.29-5.19-4.29-5.19c-0.6184-0.0451-1.4504,0.4084-2.0818,0.8624c-1.0223,0.7352-0.2631,1.9174,0.2219,1.9276   c0.3845,0.0081,0.7944-0.7,1.37-0.7c0.46,0,0.87,0.23,1.14,0.64c0.3199,0.49,0.37,1.17,0.15,1.86c0.05,0.25,0.15,0.52,0.25,0.61   c0.56,0.48,0.74,1.26,0.44,1.94c-0.42,0.96-1.31,2.58-2.85,3.21c-0.2,3.47-2.34,8.57-6.22,12.22   C13.0952,27.3778,15.7652,31.6778,15.7652,33.4378z M25.9128,3.3113c0-0.9924,1.111-0.9924,1.111,0   C27.0238,4.304,25.9128,4.3037,25.9128,3.3113z"/><path d="M18.8625,9.9963c-0.3311,0.5298,0.3091,0.9934,0.3091,0.9934c0.6623,0.8389,3.488-0.4415,3.488-0.4415   c1.4222-0.3793,2.2789-1.9463,2.6509-2.8062c0.1179-0.2725,0.0488-0.5926-0.1756-0.787c-0.5594-0.4846-0.6209-1.4842-0.6209-1.4842   c0.4224-0.9791-0.0784-1.6699-0.5435-1.2609c-0.2134,0.1876-0.5193,0.3965-0.782,0.5643   c-0.4417,0.2822-1.0421,0.0836-1.2021-0.4155c-0.1159-0.3615-0.1435-0.7202-0.1435-0.7202   c-0.3091,0.2429-0.1987,2.605-0.1987,2.605C21.6662,7.3914,18.8625,9.9963,18.8625,9.9963z M22.8872,6.2786   c0.2864-0.5665,1.032-0.189,0.7458,0.3771c-0.1195,0.2364-0.3834,0.3436-0.5894,0.2394C22.8377,6.791,22.7677,6.515,22.8872,6.2786   z"/><path d="M26.7801,3.2637c0-0.1722-0.6235-0.4124-0.6235,0C26.1566,3.6757,26.7801,3.6764,26.7801,3.2637z"/></g></svg>